<?xml version="1.0" encoding="utf-8"?>
<svg xmlns="http://www.w3.org/2000/svg" viewBox="0 0 24 24" width="96" height="96">
  <path d="M12 2C11.802 2 11.604172 2.0746562 11.451172 2.2226562L9.9453125 3.6777344L7.8730469 3.3847656C7.8350469 3.3787656 7.7987187 3.3769531 7.7617188 3.3769531C7.3837187 3.3769531 7.051375 3.64825 6.984375 4.03125L6.6210938 6.09375L4.7734375 7.0742188C4.3964375 7.2742188 4.2465937 7.7361406 4.4335938 8.1191406L5.3535156 10L4.4335938 11.880859C4.2465937 12.263859 4.3964375 12.725781 4.7734375 12.925781L6.2773438 13.722656L1 19L4 20L5 23L10.826172 17.173828L11.451172 17.777344C11.603172 17.925344 11.802 18 12 18C12.198 18 12.395828 17.925344 12.548828 17.777344L13.173828 17.173828L19 23L20 20L23 19L17.722656 13.722656L19.226562 12.925781C19.603562 12.725781 19.753406 12.263859 19.566406 11.880859L18.646484 10L19.566406 8.1191406C19.753406 7.7361406 19.603562 7.2742187 19.226562 7.0742188L17.376953 6.09375L17.015625 4.03125C16.948625 3.64825 16.615281 3.3769531 16.238281 3.3769531C16.201281 3.3769531 16.164953 3.3797656 16.126953 3.3847656L14.052734 3.6777344L12.548828 2.2226562C12.396828 2.0746562 12.198 2 12 2 z M 12 4.4726562L12.664062 5.1152344L13.367188 5.7949219L14.335938 5.6582031L15.248047 5.5292969L15.408203 6.4375L15.578125 7.4003906L16.441406 7.859375L17.257812 8.2929688L16.851562 9.1210938L16.421875 10L16.851562 10.878906L17.255859 11.707031L16.439453 12.140625L15.576172 12.597656L15.40625 13.560547L15.246094 14.470703L14.332031 14.341797L13.365234 14.203125L12.662109 14.884766L12 15.527344L11.335938 14.884766L10.632812 14.205078L9.6640625 14.341797L8.7519531 14.470703L8.5917969 13.5625L8.421875 12.599609L7.5605469 12.140625L6.7441406 11.707031L7.1484375 10.878906L7.578125 10L7.1484375 9.1210938L6.7441406 8.2929688L7.5605469 7.859375L8.4238281 7.4003906L8.59375 6.4375L8.7539062 5.5292969L9.6679688 5.6582031L10.634766 5.7949219L11.337891 5.1152344L12 4.4726562 z M 6.9648438 15.863281L6.984375 15.96875C7.051375 16.35175 7.3847188 16.623047 7.7617188 16.623047C7.7987187 16.623047 7.8350469 16.620234 7.8730469 16.615234L8.6699219 16.501953L5.8730469 19.298828L5.5800781 18.419922L4.7011719 18.126953L6.9648438 15.863281 z M 17.035156 15.863281L19.298828 18.126953L18.419922 18.419922L18.126953 19.298828L15.330078 16.501953L16.126953 16.615234C16.163953 16.620234 16.201281 16.623047 16.238281 16.623047C16.616281 16.623047 16.948625 16.35175 17.015625 15.96875L17.035156 15.863281 z" />
</svg>