<?xml version="1.0" encoding="utf-8"?>
<svg xmlns="http://www.w3.org/2000/svg" viewBox="0 0 24 24" width="96" height="96">
  <path d="M5 3C3.897 3 3 3.897 3 5L3 11.738281L3.2988281 11.626953L5 10.988281L5 5L9.9882812 5L10.626953 3.2988281L10.738281 3L5 3 z M 14.261719 3L14.373047 3.2988281L15.119141 5L19 5L19.001953 19L17.009766 19L16.371094 20.701172L16.261719 21L19 21C20.103 21 21 20.103 21 19L21 5C21 3.897 20.103 3 19 3L14.261719 3 z M 12.5 4L11.818359 5.8183594L10 6.5L11.818359 7.1816406L12.5 9L13.181641 7.1816406L15 6.5L13.181641 5.8183594L12.5 4 z M 6.5 11L5.8183594 12.818359L4 13.5L5.8183594 14.181641L6.5 16L7.1816406 14.181641L9 13.5L7.1816406 12.818359L6.5 11 z M 14.5 15L13.818359 16.818359L12 17.5L13.818359 18.181641L14.5 20L15.181641 18.181641L17 17.5L15.181641 16.818359L14.5 15 z M 3 15.261719L3 19C3 20.103 3.897 21 5 21L12.738281 21L12.626953 20.701172L11.988281 19L5 19L5 16.011719L3.2988281 15.373047L3 15.261719 z" />
</svg>