<?xml version="1.0" encoding="utf-8"?>
<svg xmlns="http://www.w3.org/2000/svg" viewBox="0 0 24 24" width="96" height="96">
  <path d="M7.5 3C4.462 3 2 5.462 2 8.5C2 12.671 6.91225 16.713234 8.28125 17.990234C9.85825 19.460234 12 21.349609 12 21.349609C12 21.349609 14.14175 19.460234 15.71875 17.990234C17.08775 16.713234 22 12.671 22 8.5C22 5.462 19.538 3 16.5 3C13.605 3 12 5.0898438 12 5.0898438C12 5.0898438 10.395 3 7.5 3 z M 7.5 5C9.327 5 10.386063 6.2755937 10.414062 6.3085938L12 8.3730469L13.585938 6.3085938C13.595937 6.2945937 14.673 5 16.5 5C18.43 5 20 6.57 20 8.5C20 11.419 16.230547 14.826375 14.810547 16.109375C14.633547 16.269375 14.480469 16.408391 14.355469 16.525391C13.604469 17.225391 12.716 18.029875 12 18.671875C11.284 18.029875 10.394531 17.225391 9.6445312 16.525391C9.5185313 16.408391 9.3654531 16.268375 9.1894531 16.109375C8.3267143 15.329872 6.6037388 13.762071 5.3789062 12L6.3339844 12L7.7539062 10.933594L9.7539062 13.933594L12.333984 12L13.271484 12 A 2 2 0 0 0 15 13 A 2 2 0 0 0 17 11 A 2 2 0 0 0 15 9 A 2 2 0 0 0 13.269531 10L11.666016 10L10.246094 11.066406L8.2460938 8.0664062L5.6660156 10L4.296875 10C4.1132031 9.4945067 4 8.9902886 4 8.5C4 6.57 5.57 5 7.5 5 z" />
</svg>