<?xml version="1.0" encoding="utf-8"?>
<svg xmlns="http://www.w3.org/2000/svg" viewBox="0 0 24 24" width="96" height="96">
  <path d="M11.984375 2C7.864375 2 4.4751094 5.1141875 4.0371094 9.1171875L2.1445312 12.087891C1.8395313 12.564891 2.0375938 13.200922 2.5585938 13.419922L3.984375 14.021484L3.984375 17C3.984375 18.105 4.879375 19 5.984375 19L7.984375 19L7.984375 22L16.984375 22L16.984375 19.240234C16.984375 16.110234 18.253625 15.254062 19.140625 13.664062C18.465625 13.881062 17.747 14 17 14C16.849 14 16.699781 13.986563 16.550781 13.976562C15.795781 15.097563 14.984375 16.554234 14.984375 19.240234L14.984375 20L9.984375 20L9.984375 17L5.984375 17L5.984375 12.693359L4.7617188 12.177734L4.5214844 12.076172L5.7226562 10.193359L5.9726562 9.8007812L6.0234375 9.3378906C6.3054375 6.7718906 8.1797031 4.7556406 10.595703 4.1816406C10.956703 3.3626406 11.468609 2.6248594 12.099609 2.0058594C12.060609 2.0048594 12.022375 2 11.984375 2 z M 16.046875 2C15.917875 2 15.809922 2.0966094 15.794922 2.2246094L15.677734 3.2363281C15.193734 3.4043281 14.756953 3.6592812 14.376953 3.9882812L13.439453 3.5820312C13.321453 3.5310312 13.183141 3.5774531 13.119141 3.6894531L12.183594 5.3105469C12.119594 5.4225469 12.148953 5.564625 12.251953 5.640625L13.058594 6.2382812C13.011594 6.4842813 12.980469 6.7380469 12.980469 6.9980469C12.980469 7.2580469 13.010594 7.5127656 13.058594 7.7597656L12.251953 8.3574219C12.148953 8.4344219 12.118594 8.5765 12.183594 8.6875L13.119141 10.308594C13.183141 10.420594 13.321453 10.465063 13.439453 10.414062L14.376953 10.009766C14.755953 10.337766 15.193734 10.593719 15.677734 10.761719L15.794922 11.773438C15.809922 11.903437 15.918875 12 16.046875 12L17.917969 12C18.046969 12 18.154922 11.903391 18.169922 11.775391L18.287109 10.763672C18.771109 10.595672 19.207891 10.340719 19.587891 10.011719L20.523438 10.417969C20.641437 10.468969 20.77975 10.421547 20.84375 10.310547L21.779297 8.6894531C21.843297 8.5774531 21.815891 8.435375 21.712891 8.359375L20.90625 7.7597656C20.95325 7.5127656 20.982422 7.26 20.982422 7C20.982422 6.74 20.952297 6.4872344 20.904297 6.2402344L21.710938 5.640625C21.813938 5.563625 21.844297 5.4215469 21.779297 5.3105469L20.84375 3.6894531C20.77975 3.5774531 20.641437 3.5329844 20.523438 3.5839844L19.587891 3.9882812C19.208891 3.6602813 18.769156 3.4043281 18.285156 3.2363281L18.169922 2.2246094C18.154922 2.0966094 18.046969 2 17.917969 2L16.046875 2 z M 16.982422 5.25C17.948422 5.25 18.732422 6.033 18.732422 7C18.732422 7.966 17.949422 8.75 16.982422 8.75C16.016422 8.75 15.232422 7.966 15.232422 7C15.232422 6.033 16.016422 5.25 16.982422 5.25 z" />
</svg>