<?xml version="1.0" encoding="utf-8"?>
<svg xmlns="http://www.w3.org/2000/svg" viewBox="0 0 24 24" width="96" height="96">
  <path d="M5.7363281 2C4.0753281 2 2.9014062 3.0253125 2.4414062 3.9453125C1.9814063 4.8653125 2 5.7363281 2 5.7363281C1.99 6.4243281 2.5405156 6.99 3.2285156 7C3.9165156 7.01 4.4802344 6.4594844 4.4902344 5.7714844L4.4902344 5.7363281C4.4902344 5.7363281 4.5108281 5.3611563 4.6738281 5.0351562C4.8368281 4.7091562 4.9053281 4.4902344 5.7363281 4.4902344C6.4243281 4.5002344 6.99 3.9516719 7 3.2636719C7.01 2.5756719 6.4594844 2.01 5.7714844 2L5.7363281 2 z M 12.478516 4C12.241516 4 11.995906 4.0013437 11.753906 4.0273438C8.9119062 4.3453437 6.5678594 6.5272031 6.1308594 9.2832031C5.9138594 10.546203 6.1161563 11.698891 6.5351562 12.712891C6.9341563 13.717891 6.9734531 14.702094 6.5644531 15.496094L6.59375 15.496094C6.12275 16.227094 6.0136719 17.033781 6.0136719 17.800781L6.0136719 17.828125L6.0136719 17.857422C6.2456719 20.448422 8.8051875 22.243594 11.492188 21.933594C11.501188 21.932594 11.512484 21.934594 11.521484 21.933594C13.565484 21.716594 15.474219 20.524547 16.824219 18.560547C18.182219 16.588547 19 13.833219 19 10.324219C19 6.8042188 16.038516 3.995 12.478516 4 z M 19.882812 4.4277344C19.763953 4.4428906 19.647109 4.482875 19.537109 4.546875C19.445109 4.600875 19.362922 4.669 19.294922 4.75C19.024922 5.055 18.986172 5.5016563 19.201172 5.8476562C19.676172 6.6086563 19.917203 7.2056562 20.033203 7.5976562C20.149203 7.9896563 20.154297 8.0996094 20.154297 8.0996094C20.167297 8.6096094 20.589609 9.0110469 21.099609 8.9980469C21.609609 8.9850469 22.013 8.5627344 22 8.0527344C22 8.0527344 21.981359 7.6232188 21.818359 7.0742188C21.655359 6.5252188 21.359828 5.7799063 20.798828 4.8789062C20.606078 4.5489062 20.239391 4.3822656 19.882812 4.4277344 z M 12.466797 6.0019531C14.969797 5.9919531 17 7.9242031 17 10.408203C17 13.559203 16.267266 15.90875 15.197266 17.46875C14.127266 19.02875 12.7415 19.811031 11.3125 19.957031C9.6195 20.163031 8.1402344 19.114812 7.9902344 17.632812C7.9962344 17.044812 8.2014219 16.562328 8.3574219 16.236328C9.0034219 14.888328 8.8987656 13.401516 8.3847656 12.103516C8.0707656 11.339516 7.9252188 10.539969 8.0742188 9.6679688C8.3702187 7.7979687 10.036937 6.2433438 11.960938 6.0273438C12.130937 6.0093438 12.299797 6.0019531 12.466797 6.0019531 z M 12 9 A 2 2 0 0 0 10 11 A 2 2 0 0 0 12 13 A 2 2 0 0 0 14 11 A 2 2 0 0 0 12 9 z M 3.7480469 12.986328C3.3910469 13.006328 3.1006406 13.279766 3.0566406 13.634766C2.9596406 14.311766 2.4707031 14.572266 2.4707031 14.572266C2.0837031 14.702266 1.8768125 15.122766 2.0078125 15.509766C2.1378125 15.896766 2.5563594 16.105609 2.9433594 15.974609C3.0173594 15.949609 3.0864375 15.913188 3.1484375 15.867188C3.1484375 15.867188 4.3361562 15.241609 4.5351562 13.849609C4.6041562 13.447609 4.3336406 13.065094 3.9316406 12.996094C3.8706406 12.985094 3.8090469 12.981328 3.7480469 12.986328 z M 11 16 A 1 1 0 0 0 10 17 A 1 1 0 0 0 11 18 A 1 1 0 0 0 12 17 A 1 1 0 0 0 11 16 z M 20.509766 18 A 1.477 1.477 0 0 0 19.033203 19.476562 A 1.477 1.477 0 0 0 20.509766 20.953125 A 1.477 1.477 0 0 0 21.986328 19.476562 A 1.477 1.477 0 0 0 20.509766 18 z M 4.015625 20.033203 A 0.96799999 0.96799999 0 0 0 3.0488281 21.001953 A 0.96799999 0.96799999 0 0 0 4.015625 21.96875 A 0.96799999 0.96799999 0 0 0 4.984375 21.001953 A 0.96799999 0.96799999 0 0 0 4.015625 20.033203 z" />
</svg>