<?xml version="1.0" encoding="utf-8"?>
<svg xmlns="http://www.w3.org/2000/svg" viewBox="0 0 24.07 23.379" width="96" height="96">
  <path d="M20 0 A 2.811 2.811 0 0 0 19.644531 1.2753906 A 2.737 2.737 0 0 0 19.816406 2.3496094 A 2.789 2.789 0 0 0 20.119141 2.9238281 A 2.606 2.606 0 0 0 19.261719 2.5214844 A 2.553 2.553 0 0 0 18.212891 2.4765625 A 2.713 2.713 0 0 0 17.021484 2.984375 A 2.72 2.72 0 0 0 17.822266 4 A 2.565 2.565 0 0 0 18.761719 4.4628906 A 2.606 2.606 0 0 0 19.810547 4.5058594 A 2.734 2.734 0 0 0 20.398438 4.3359375C20.690551 5.3476013 20.842401 6.3934431 20.912109 7.4472656C20.13416 6.6791546 19.197769 6.0926327 18.078125 6.0039062L18.039062 6L18 6C16.72963 6 15.753562 6.6940761 14.849609 7.4453125C14.317023 7.8879226 13.726835 8.3756405 13.099609 8.8652344C13.08854 8.5730692 13.052783 8.2511917 12.976562 7.9082031C12.675527 6.5535121 11.759609 4.8192187 9.5996094 3.1992188L8 2L8 4C8 4 7.9986768 4.9533147 7.8808594 6.0136719C7.824341 6.5223365 7.7388672 7.0470103 7.6269531 7.4746094C7.2883881 7.2491236 6.949385 7.0217501 6.6386719 6.7890625C4.9091417 5.4938479 3.7070314 4.2929688 3.7070312 4.2929688L2.2617188 2.8476562L2.0078125 4.8769531C1.6718967 7.5663854 1.9221705 9.9952561 2.8027344 11.996094C3.436592 13.436359 4.5182721 14.522509 5.7890625 15.386719C5.4094914 15.608667 5.0705265 15.899367 4.6582031 16.056641C3.5748814 16.419786 2.4045334 16.420174 1.3222656 16.052734L0.05078125 15.621094L0 16.962891C-0.03848953 17.995953 0.094729015 19.027636 0.39257812 20.017578L0.41210938 20.082031L0.43945312 20.144531C0.88688093 21.126969 1.5278129 22.009506 2.3242188 22.738281L3.03125 23.382812L3.7070312 22.707031C3.7070312 22.707031 4.140026 22.275139 4.8046875 21.832031C5.469349 21.388924 6.3333333 21 7 21C8.7666614 21 11.584669 21.812044 14.554688 19.832031C16.310703 18.661354 17.167596 16.911275 17.699219 15.316406C18.230842 13.721538 18.513788 12.208752 18.894531 11.447266L18.896484 11.441406L18.900391 11.435547C19.262215 10.687409 19.97845 10.226082 20.785156 10.087891C20.683051 11.286594 20.562528 12.493318 20.082031 13.601562L21.917969 14.398438C22.653042 12.703014 23.017261 10.871041 22.996094 9.0234375C23.073379 7.2849372 22.847655 5.5521885 22.351562 3.890625 A 2.634 2.634 0 0 0 22.720703 3.7539062 A 2.39 2.39 0 0 0 23.513672 3.140625 A 2.341 2.341 0 0 0 23.976562 2.2539062 A 2.6 2.6 0 0 0 24 1 A 2.589 2.589 0 0 0 22.777344 1.2460938 A 2.325 2.325 0 0 0 21.986328 1.859375 A 2.357 2.357 0 0 0 21.806641 2.109375 A 2.779 2.779 0 0 0 21.683594 1.6503906 A 2.742 2.742 0 0 0 21.109375 0.72460938 A 2.814 2.814 0 0 0 20 0 z M 9.8613281 6.2792969C10.490898 7.0600482 10.899865 7.7857224 11.023438 8.3417969C11.11664 8.7612114 11.125033 9.0722575 11.111328 9.2949219C10.541966 9.0910085 9.960384 8.8302317 9.3828125 8.5273438C9.4357981 8.3717994 9.4991229 8.2213148 9.5429688 8.0605469C9.7013599 7.479779 9.7953223 6.8619037 9.8613281 6.2792969 z M 3.9609375 7.1289062C4.508976 7.6157938 4.5701906 7.7396496 5.4394531 8.390625C7.288923 9.7756604 9.6837488 11.294972 12.150391 11.707031L12.53125 11.771484L12.855469 11.5625C14.288636 10.643543 15.311859 9.6633886 16.128906 8.984375C16.934142 8.3151777 17.450763 8.0223826 17.972656 8.0136719C18.469622 8.0632769 18.915096 8.2607298 19.302734 8.5507812C18.380353 8.9878831 17.563219 9.6130543 17.103516 10.560547C16.486897 11.797683 16.268289 13.281069 15.800781 14.683594C15.332404 16.088725 14.689298 17.338646 13.445312 18.167969C11.153332 19.695959 9.2653386 19 7 19C5.6666667 19 4.530651 19.611076 3.6953125 20.167969C3.3880483 20.372812 3.399487 20.402995 3.1796875 20.582031C2.8596362 20.193383 2.5112454 19.825024 2.296875 19.367188C2.185987 18.984535 2.1943045 18.583772 2.1464844 18.189453C3.2133325 18.317889 4.2929845 18.296723 5.3222656 17.947266L5.3378906 17.941406L5.3554688 17.935547C6.4347565 17.526397 7.4350619 16.93355 8.3125 16.183594L9.5820312 15.095703L8.0234375 14.490234C6.4324122 13.871985 5.3272484 12.769319 4.6328125 11.191406C4.1463019 10.085946 3.9739056 8.6681081 3.9609375 7.1289062 z" />
</svg>