<?xml version="1.0" encoding="utf-8"?>
<svg xmlns="http://www.w3.org/2000/svg" viewBox="0 0 24 24" width="96" height="96">
  <path d="M11.03125 3C9.8865255 3 8.8219757 3.6090929 8.28125 4.6152344L6.6796875 7.3261719L8.4003906 8.34375L10.033203 5.5800781L10.042969 5.5625C10.220243 5.2326415 10.597975 5 11.03125 5L13.019531 5C13.453413 5 13.83195 5.2321005 14.009766 5.5644531L14.019531 5.5820312L15.660156 8.3730469L14 9.3730469L18.117188 10.396484L19.138672 6.2773438L17.373047 7.3417969L15.773438 4.6210938C15.233218 3.6114464 14.165649 3 13.019531 3L11.03125 3 z M 6.6054688 9.6308594L2.4667969 10.566406L4.140625 11.623047L2.3847656 14.59375L2.375 14.611328C1.8464894 15.596074 1.9302039 16.807596 2.5859375 17.714844L2.5859375 17.716797L3.3125 18.71875C3.8991007 19.53189 4.8493769 20 5.8535156 20L10 20L10 18L5.8535156 18C5.4736544 18 5.1289929 17.819689 4.9335938 17.548828L4.2070312 16.544922C3.9867648 16.24017 3.9651824 15.881848 4.1386719 15.558594L5.8320312 12.691406L7.5390625 13.769531L6.6054688 9.6308594 z M 19.919922 11.671875L18.195312 12.685547L19.886719 15.5625C20.057964 15.884073 20.03559 16.242665 19.816406 16.544922L19.089844 17.548828C18.893632 17.819616 18.547845 18 18.169922 18L15 18L15 16L12 19L15 22L15 20L18.169922 20C19.171999 20 20.121193 19.533868 20.708984 18.722656L21.435547 17.71875C22.091927 16.813605 22.178033 15.603125 21.650391 14.617188L21.640625 14.599609L19.919922 11.671875 z" />
</svg>