<?xml version="1.0" encoding="utf-8"?>
<svg xmlns="http://www.w3.org/2000/svg" viewBox="0 0 24 24" width="96" height="96">
  <path d="M18 3L18 4L19.583984 4L18 6.2949219L18 7L21 7L21 6L19.419922 6L21 3.7109375L21 3L18 3 z M 2 5L2 21L4 21L4 19L20 19L20 21L22 21L22 12C22 10.895 21.105 10 20 10L12 10C10.895 10 10 10.895 10 12L8.7304688 12 A 2 2 0 0 0 9 11 A 2 2 0 0 0 7 9 A 2 2 0 0 0 5 11 A 2 2 0 0 0 5.2714844 12L4 12L4 5L2 5 z M 14 5L14 6L15.583984 6L14 8.2949219L14 9L17 9L17 8L15.419922 8L17 5.7109375L17 5L14 5 z M 4 14L20 14L20 17L4 17L4 14 z" />
</svg>