<?xml version="1.0" encoding="utf-8"?>
<svg xmlns="http://www.w3.org/2000/svg" viewBox="0 0 24 24" width="96" height="96">
  <path d="M17 1C17 1 13.472845 1.0429363 12.384766 4.6640625C11.349512 2.8424035 9.3691406 2.0703125 9.3691406 2.0703125L8.6308594 3.9296875C8.6308594 3.9296875 10.419394 4.6680547 10.886719 6.2382812C10.440733 6.4242548 10.047864 6.6994629 9.7519531 7.0371094C9.2283433 7.6345706 8.9313288 8.361873 8.7558594 9.1015625C8.4997654 10.178749 7.4105333 11.184812 6.4414062 12.492188C5.7256626 13.458329 5.1827159 14.582423 5.0371094 15.798828C4.8915028 17.015233 5.1909939 18.334944 6.0859375 19.4375C7.5657553 21.261769 9.8839661 22 12 22C14.116034 22 16.433357 21.261384 17.914062 19.4375C18.80921 18.335309 19.108489 17.015321 18.962891 15.798828C18.817292 14.582335 18.274393 13.458403 17.558594 12.492188L17.558594 12.490234C16.588676 11.183339 15.501349 10.17826 15.246094 9.1015625C15.070098 8.3621459 14.77172 7.6344437 14.248047 7.0371094C14.129947 6.9023976 13.992778 6.7795104 13.847656 6.6640625C16.951117 5.4123808 17 1 17 1 z M 12 8C12.340382 8 12.519564 8.0993029 12.744141 8.3554688C12.968717 8.6116345 13.178777 9.0518697 13.300781 9.5644531C13.751526 11.465755 15.179042 12.640535 15.953125 13.683594C16.508688 14.433976 16.884975 15.271887 16.976562 16.037109C17.068213 16.802866 16.923182 17.483973 16.361328 18.175781C15.374034 19.391897 13.637966 20 12 20C10.362034 20 8.624854 19.393466 7.6386719 18.177734C7.0766155 17.48529 6.931794 16.802704 7.0234375 16.037109C7.115081 15.271515 7.4925718 14.432499 8.0488281 13.681641C8.8217012 12.639016 10.249266 11.465267 10.701172 9.5644531C10.822702 9.0521426 11.031469 8.6115075 11.255859 8.3554688C11.48025 8.0994299 11.659618 8 12 8 z" />
</svg>