<?xml version="1.0" encoding="utf-8"?>
<svg xmlns="http://www.w3.org/2000/svg" viewBox="0 0 24 24" width="96" height="96">
  <path d="M3 3L3 21L5 21L5 19L7 19L7 17L5 17L5 13L13 13L13 11L5 11L5 7L8 7L8 5L5 5L5 3L3 3 z M 12 4C10.897 4 10 4.897 10 6C10 7.103 10.897 8 12 8C12.736781 8 13.373707 7.5945235 13.720703 7L21 7L21 5L13.720703 5C13.373707 4.4054765 12.736781 4 12 4 z M 17 10C15.897 10 15 10.897 15 12C15 13.103 15.897 14 17 14C17.736781 14 18.373707 13.594524 18.720703 13L21 13L21 11L18.720703 11C18.373707 10.405476 17.736781 10 17 10 z M 11 16C9.897 16 9 16.897 9 18C9 19.103 9.897 20 11 20C11.736781 20 12.373707 19.594524 12.720703 19L21 19L21 17L12.720703 17C12.373707 16.405476 11.736781 16 11 16 z" />
</svg>