<?xml version="1.0" encoding="utf-8"?>
<svg xmlns="http://www.w3.org/2000/svg" viewBox="0 0 24 24" width="96" height="96">
  <path d="M9.9453125 2C9.7095 2.0087969 9.469125 2.054875 9.234375 2.140625C8.295375 2.481625 7.7110469 3.3496094 7.7480469 4.3496094C7.7520469 4.4566094 7.6992969 4.5225469 7.6542969 4.5605469C7.6092969 4.5985469 7.5336406 4.6372344 7.4316406 4.6152344C6.4556406 4.4032344 5.4960938 4.8293125 4.9960938 5.6953125C4.4950937 6.5613125 4.6063437 7.60175 5.2773438 8.34375C5.3523437 8.42675 5.3497969 8.5194062 5.3417969 8.5664062C5.3307969 8.6244062 5.2990781 8.7019531 5.2050781 8.7519531C4.3210781 9.2199531 3.8611562 10.159531 4.0351562 11.144531C4.2091563 12.129531 4.962125 12.855187 5.953125 12.992188C6.057125 13.006187 6.1155313 13.069141 6.1445312 13.119141C6.1735312 13.169141 6.1982031 13.250609 6.1582031 13.349609C5.8506738 14.106982 5.9708572 14.920705 6.4414062 15.544922L3.8574219 20L7.3574219 20L7.3574219 20.001953L8.8476562 23.269531L11.984375 18.041016L15.121094 23.269531L16.611328 20L20.111328 20L17.542969 15.572266C18.030402 14.944809 18.156377 14.119152 17.84375 13.349609C17.80475 13.251609 17.831375 13.170141 17.859375 13.119141C17.888375 13.069141 17.946781 13.006187 18.050781 12.992188C19.041781 12.855188 19.79475 12.129531 19.96875 11.144531C20.14275 10.159531 19.682828 9.2199531 18.798828 8.7519531C18.704828 8.7019531 18.673109 8.6244062 18.662109 8.5664062C18.654109 8.5194063 18.651563 8.42675 18.726562 8.34375C19.397562 7.60175 19.508813 6.5623125 19.007812 5.6953125C18.507812 4.8283125 17.548266 4.4042344 16.572266 4.6152344C16.468266 4.6372344 16.394609 4.5985469 16.349609 4.5605469C16.304609 4.5225469 16.251859 4.4556094 16.255859 4.3496094C16.292859 3.3506094 15.708531 2.482625 14.769531 2.140625C13.828531 1.798625 12.824984 2.0869531 12.208984 2.8769531C12.077984 3.0439531 11.925922 3.0449531 11.794922 2.8769531C11.332172 2.2844531 10.65275 1.9736094 9.9453125 2 z M 10.080078 4.0078125C10.129828 4.0216875 10.175344 4.0530156 10.214844 4.1035156C11.075844 5.2135156 12.922156 5.2125156 13.785156 4.1035156C13.863156 4.0035156 13.965031 3.9745781 14.082031 4.0175781C14.201031 4.0605781 14.259859 4.1474375 14.255859 4.2734375C14.229859 4.9754375 14.5235 5.6378438 15.0625 6.0898438C15.6005 6.5418437 16.301234 6.7163594 16.990234 6.5683594C17.117234 6.5413594 17.209437 6.5843594 17.273438 6.6933594C17.337438 6.8033594 17.325234 6.9079531 17.240234 7.0019531C16.768234 7.5239531 16.567453 8.2191094 16.689453 8.9121094C16.812453 9.6041094 17.238375 10.191531 17.859375 10.519531C17.972375 10.578531 18.018094 10.671875 17.996094 10.796875C17.974094 10.921875 17.898438 10.992766 17.773438 11.009766C17.076438 11.106766 16.475047 11.512094 16.123047 12.121094C15.772047 12.729094 15.723281 13.451562 15.988281 14.101562C16.036281 14.218563 16.011063 14.320344 15.914062 14.402344C15.816063 14.483344 15.710469 14.490828 15.605469 14.423828C15.008469 14.049828 14.288906 13.971891 13.628906 14.212891C12.968906 14.453891 12.465047 14.974531 12.248047 15.644531C12.172047 15.886531 11.828 15.886531 11.75 15.644531C11.534 14.975531 11.031094 14.454844 10.371094 14.214844C10.117094 14.121844 9.8567031 14.076172 9.5957031 14.076172C9.1777031 14.076172 8.7624844 14.193781 8.3964844 14.425781C8.2884844 14.493781 8.1868906 14.486297 8.0878906 14.404297C7.9918906 14.322297 7.9647188 14.221469 8.0117188 14.105469C8.2767187 13.454469 8.2279531 12.730094 7.8769531 12.121094C7.5259531 11.511094 6.9235625 11.108719 6.2265625 11.011719C6.1015625 10.994719 6.0268594 10.921875 6.0058594 10.796875C5.9838594 10.672875 6.028625 10.579531 6.140625 10.519531C6.761625 10.191531 7.1875469 9.6060625 7.3105469 8.9140625C7.4325469 8.2210625 7.2337188 7.5249062 6.7617188 7.0039062C6.6767187 6.9089062 6.6655156 6.8053125 6.7285156 6.6953125C6.7915156 6.5863125 6.8817656 6.5423125 7.0097656 6.5703125C7.6987656 6.7203125 8.3995 6.5447969 8.9375 6.0917969C9.4775 5.6407969 9.7701406 4.9783906 9.7441406 4.2753906C9.7401406 4.1483906 9.7989687 4.0615781 9.9179688 4.0175781C9.9764688 3.9965781 10.030328 3.9939375 10.080078 4.0078125 z M 9.5859375 16.076172C9.6250625 16.074672 9.66 16.08375 9.6875 16.09375C9.7425 16.11375 9.8156562 16.158766 9.8476562 16.259766C9.9406375 16.548098 10.086508 16.800621 10.267578 17.019531L9.0585938 19.033203C8.7050865 18.418619 8.0768817 18 7.3574219 18L7.3300781 18L8.21875 16.464844C8.6428333 16.47104 9.0713123 16.360854 9.4589844 16.117188C9.5039844 16.089188 9.5468125 16.077672 9.5859375 16.076172 z M 14.416016 16.076172C14.455141 16.077672 14.500875 16.088188 14.546875 16.117188C14.922496 16.353228 15.335724 16.464209 15.748047 16.464844L16.638672 18L16.611328 18C15.892671 18 15.263816 18.417354 14.910156 19.033203L13.714844 17.041016C13.905217 16.817466 14.05891 16.557731 14.15625 16.259766C14.18925 16.158766 14.261406 16.11375 14.316406 16.09375C14.342906 16.08375 14.376891 16.074672 14.416016 16.076172 z" />
</svg>